<?xml version="1.0" encoding="UTF-8"?>
<svg width="83px" height="24px" viewBox="0 0 83 24" version="1.1" xmlns="http://www.w3.org/2000/svg" xmlns:xlink="http://www.w3.org/1999/xlink">
    <!-- Generator: Sketch 52.2 (67145) - http://www.bohemiancoding.com/sketch -->
    <title>Artboard Copy 5</title>
    <desc>Created with Sketch.</desc>
    <defs>
        <linearGradient x1="50%" y1="0%" x2="50%" y2="100%" id="linearGradient-1">
            <stop stop-color="#FAA8FF" offset="0%"></stop>
            <stop stop-color="#0F52E3" stop-opacity="0.6" offset="100%"></stop>
        </linearGradient>
        <linearGradient x1="50%" y1="0%" x2="50%" y2="92.7619392%" id="linearGradient-2">
            <stop stop-color="#0F52E3" stop-opacity="0.6" offset="0%"></stop>
            <stop stop-color="#FAA8FF" offset="100%"></stop>
        </linearGradient>
    </defs>
    <g id="Artboard-Copy-5" stroke="none" stroke-width="1" fill="none" fill-rule="evenodd">
        <g id="Group-2">
            <rect id="Rectangle" stroke="#ECECEC" stroke-width="0.5" fill="#FFFFFF" x="0.25" y="0.25" width="23.5" height="23.5" rx="7.96875"></rect>
            <g id="Group" transform="translate(3.562500, 4.734375)">
                <path d="M8.4375,1.71875 C9.375,1.71875 10.2083333,1.875 10.9375,2.1875 C12.2487745,1.05942234 13.6029412,0.330255674 15,-7.10542736e-15 C15.0551471,4.79260728e-15 15.8823529,1.65127837 15.625,3.90625 C15.5514706,3.96306809 16.875,5.61434646 16.875,7.03125 C16.875,7.54971595 16.875,8.06818191 16.875,8.58664786 C16.875,11.869761 14.213511,14.53125 10.9303979,14.53125 L8.4375,14.53125 L5.94460214,14.53125 C2.66148903,14.53125 4.02065395e-16,11.869761 0,8.58664786 C0,8.06818191 0,7.54971595 0,7.03125 C1.17553026e-15,5.61434646 1.32352941,3.96306809 1.25,3.90625 C0.992647059,1.65127837 1.875,4.97379915e-14 1.875,4.97379915e-14 C3.27205882,0.330255674 4.62622549,1.05942234 5.9375,2.1875 C6.66666667,1.875 7.5,1.71875 8.4375,1.71875 Z" id="Combined-Shape" fill="url(#linearGradient-1)"></path>
                <path d="M5.859375,5.625 L11.015625,5.625 C13.302429,5.625 15.15625,7.47882096 15.15625,9.765625 L15.15625,10.390625 C15.15625,12.677429 13.302429,14.53125 11.015625,14.53125 L5.859375,14.53125 C3.57257096,14.53125 1.71875,12.677429 1.71875,10.390625 L1.71875,9.765625 C1.71875,7.47882096 3.57257096,5.625 5.859375,5.625 Z" id="Rectangle" fill="url(#linearGradient-2)"></path>
            </g>
        </g>
        <path d="M35.5,19 C33.08,19 32,17.56 32,15.66 L32.14,5.8 L35.08,5.8 L35.08,8.54 L37.58,8.54 L37.58,11.16 L35.08,11.16 L35.08,14.92 C35.08,15.9 35.5,16.32 36.42,16.32 L37.62,16.32 L37.62,19 L35.5,19 Z M42.5371429,19.18 C40.1771429,19.18 38.8771429,17.76 38.8771429,15.9 C38.8771429,13.96 40.1971429,12.68 43.0771429,12.68 L45.3171429,12.68 L45.3171429,12.12 C45.3171429,11.4 44.8571429,10.84 43.7171429,10.84 C42.7571429,10.84 42.1971429,11.36 42.1971429,12 L39.3171429,12 C39.3171429,10.04 40.7371429,8.36 43.8171429,8.36 C46.6771429,8.36 48.3971429,9.94 48.3971429,12.12 L48.3971429,19 L45.6371429,19 L45.4171429,18.06 L45.3371429,18.06 C44.7571429,18.72 43.8371429,19.18 42.5371429,19.18 Z M43.3171429,16.78 C44.5771429,16.78 45.3171429,16.04 45.3171429,15.18 L45.3171429,14.74 L43.3371429,14.74 C42.3571429,14.74 41.9171429,15.18 41.9171429,15.74 C41.9171429,16.34 42.3971429,16.78 43.3171429,16.78 Z M55.9942857,19.18 C54.5142857,19.18 53.7142857,18.6 53.2142857,18 L53.1342857,18 L52.8142857,19 L50.0542857,19 L50.0542857,4.2 L53.1342857,4.2 L53.1342857,9.54 L53.2142857,9.54 C53.7142857,8.94 54.5142857,8.36 55.9942857,8.36 C58.6342857,8.36 60.2342857,10.64 60.2342857,13.76 C60.2342857,16.9 58.6342857,19.18 55.9942857,19.18 Z M55.0542857,16.48 C56.5742857,16.48 57.1142857,15.22 57.1142857,13.76 C57.1142857,12.3 56.6142857,11.06 55.0542857,11.06 C53.4942857,11.06 52.9942857,12.3 52.9942857,13.76 C52.9942857,15.22 53.5342857,16.48 55.0542857,16.48 Z M67.5314286,19.18 C66.0514286,19.18 65.2514286,18.6 64.7514286,18 L64.6714286,18 L64.3514286,19 L61.5914286,19 L61.5914286,4.2 L64.6714286,4.2 L64.6714286,9.54 L64.7514286,9.54 C65.2514286,8.94 66.0514286,8.36 67.5314286,8.36 C70.1714286,8.36 71.7714286,10.64 71.7714286,13.76 C71.7714286,16.9 70.1714286,19.18 67.5314286,19.18 Z M66.5914286,16.48 C68.1114286,16.48 68.6514286,15.22 68.6514286,13.76 C68.6514286,12.3 68.1514286,11.06 66.5914286,11.06 C65.0314286,11.06 64.5314286,12.3 64.5314286,13.76 C64.5314286,15.22 65.0714286,16.48 66.5914286,16.48 Z M72.0285714,8.54 L75.1885714,8.54 L77.3085714,15.96 L77.3885714,15.96 L79.6485714,8.54 L82.9685714,8.54 L82.9685714,8.74 L77.7085714,23.58 L74.3685714,23.58 L74.3685714,23.38 L75.8685714,19 L75.3485714,19 L72.0285714,8.74 L72.0285714,8.54 Z" id="tabby" fill="#121619"></path>
    </g>
</svg>