<?xml version="1.0" encoding="UTF-8"?>
<svg width="92px" height="24px" viewBox="0 0 92 24" version="1.1" xmlns="http://www.w3.org/2000/svg" xmlns:xlink="http://www.w3.org/1999/xlink">
    <!-- Generator: Sketch 52.2 (67145) - http://www.bohemiancoding.com/sketch -->
    <title>Group 10</title>
    <desc>Created with Sketch.</desc>
    <defs>
        <linearGradient x1="50%" y1="0%" x2="50%" y2="100%" id="linearGradient-1">
            <stop stop-color="#FFFFFF" offset="0%"></stop>
            <stop stop-color="#FFFFFF" stop-opacity="0.6" offset="100%"></stop>
        </linearGradient>
        <linearGradient x1="50%" y1="0%" x2="50%" y2="95.6427984%" id="linearGradient-2">
            <stop stop-color="#0050FF" stop-opacity="0.8" offset="0%"></stop>
            <stop stop-color="#0050FF" stop-opacity="0" offset="100%"></stop>
        </linearGradient>
    </defs>
    <g id="ðŸŒ-Website" stroke="none" stroke-width="1" fill="none" fill-rule="evenodd">
        <g id="Artboard-Copy-2" transform="translate(-36.000000, -28.000000)">
            <g id="Group-10" transform="translate(36.000000, 28.000000)">
                <path d="M37.9342973,19.487069 C35.3114193,19.487069 34,18.1939784 34,15.6077586 L34,10.5862069 L34,7.95689655 L34,5.60775862 L37.827387,5.60775862 L37.827387,7.95689655 L40.0297383,7.95689655 L40.0297383,10.5862069 L37.827387,10.5862069 L37.827387,15.2413793 C37.827387,16.0316131 38.2051328,16.4267241 38.9606357,16.4267241 C39.3455146,16.4267241 39.7090058,16.3620696 40.0511203,16.2327586 L40.0511203,19.1637931 C39.2243436,19.3793114 38.5187429,19.487069 37.9342973,19.487069 Z M44.7100315,19.487069 C43.6124141,19.487069 42.7072497,19.2068994 41.9945111,18.6465517 C41.2817725,18.0862041 40.9254086,17.2385114 40.9254086,16.1034483 C40.9254086,13.6465394 42.9067921,12.4181034 46.8696186,12.4181034 L47.9387212,12.4181034 L47.9387212,12.1594828 C47.9387212,11.5703994 47.8353756,11.1250015 47.6286814,10.8232759 C47.4219873,10.5215502 47.0335506,10.3706897 46.4633597,10.3706897 C45.5653091,10.3706897 45.0592723,10.8160875 44.9452341,11.7068966 L41.3530496,11.7068966 C41.4385782,10.3850509 41.9588696,9.37931379 42.9139393,8.68965517 C43.869009,7.99999655 45.1305374,7.65517241 46.6985622,7.65517241 C48.2950967,7.65517241 49.5352432,8.00358847 50.419039,8.70043103 C51.3028349,9.3972736 51.7447262,10.4712571 51.7447262,11.9224138 L51.7447262,19.2284483 L48.0242494,19.2284483 L48.0242494,17.9137931 C47.3400203,18.9626489 46.2352921,19.487069 44.7100315,19.487069 Z M46.0357187,16.8793103 C46.5916548,16.8793103 47.0478006,16.7320417 47.4041699,16.4375 C47.7605392,16.1429583 47.9387212,15.7586231 47.9387212,15.2844828 L47.9387212,14.5948276 L46.9337648,14.5948276 C46.1497524,14.5948276 45.5831337,14.6846255 45.2338918,14.8642241 C44.8846499,15.0438227 44.7100315,15.3635034 44.7100315,15.8232759 C44.7100315,16.5273024 45.1519228,16.8793103 46.0357187,16.8793103 Z M60.9793962,19.487069 C60.1668742,19.487069 59.45771,19.3074731 58.8518822,18.9482759 C58.2460544,18.5890787 57.8005995,18.1005778 57.515504,17.4827586 L57.515504,19.2284483 L53.688117,19.2284483 L53.688117,3 L57.515504,3 L57.515504,9.63793103 C58.2995165,8.31608534 59.4612629,7.65517241 61.0007783,7.65517241 C62.3692364,7.65517241 63.4989101,8.16522478 64.3898333,9.18534483 C65.2807565,10.2054649 65.7262114,11.6422321 65.7262114,13.4956897 L65.7262114,13.6681034 C65.7262114,15.5359289 65.2807565,16.9726961 64.3898333,17.9784483 C63.4989101,18.9842004 62.3621091,19.487069 60.9793962,19.487069 Z M57.9859091,15.8017241 C58.370788,16.2902323 58.9195885,16.5344828 59.632327,16.5344828 C60.3450656,16.5344828 60.8903025,16.2902323 61.2680539,15.8017241 C61.6458054,15.3132159 61.8346782,14.6020162 61.8346782,13.6681034 L61.8346782,13.4956897 C61.8346782,12.5330412 61.6422417,11.8038818 61.2573629,11.3081897 C60.872484,10.8124975 60.3308108,10.5646552 59.632327,10.5646552 C58.9338432,10.5646552 58.3886064,10.8160894 57.9966002,11.3189655 C57.604594,11.8218416 57.4085938,12.5402252 57.4085938,13.4741379 L57.4085938,13.6465517 C57.4085938,14.5948323 57.6010303,15.3132159 57.9859091,15.8017241 Z M74.4904764,19.487069 C73.6779544,19.487069 72.9687901,19.3074731 72.3629624,18.9482759 C71.7571346,18.5890787 71.3116796,18.1005778 71.0265842,17.4827586 L71.0265842,19.2284483 L67.1991971,19.2284483 L67.1991971,3 L71.0265842,3 L71.0265842,9.63793103 C71.8105966,8.31608534 72.9723431,7.65517241 74.5118584,7.65517241 C75.8803165,7.65517241 77.0099902,8.16522478 77.9009134,9.18534483 C78.7918367,10.2054649 79.2372916,11.6422321 79.2372916,13.4956897 L79.2372916,13.6681034 C79.2372916,15.5359289 78.7918367,16.9726961 77.9009134,17.9784483 C77.0099902,18.9842004 75.8731892,19.487069 74.4904764,19.487069 Z M71.4969893,15.8017241 C71.8818681,16.2902323 72.4306686,16.5344828 73.1434072,16.5344828 C73.8561458,16.5344828 74.4013826,16.2902323 74.7791341,15.8017241 C75.1568855,15.3132159 75.3457584,14.6020162 75.3457584,13.6681034 L75.3457584,13.4956897 C75.3457584,12.5330412 75.1533219,11.8038818 74.768443,11.3081897 C74.3835642,10.8124975 73.841891,10.5646552 73.1434072,10.5646552 C72.4449234,10.5646552 71.8996866,10.8160894 71.5076803,11.3189655 C71.1156741,11.8218416 70.9196739,12.5402252 70.9196739,13.4741379 L70.9196739,13.6465517 C70.9196739,14.5948323 71.1121105,15.3132159 71.4969893,15.8017241 Z M82.3566952,23 L84.2169336,18.0862069 L79.748085,7.95689655 L83.8962028,7.95689655 L86.2054643,13.9698276 L88.3436694,7.95689655 L92,7.95689655 L86.0130258,23 L82.3566952,23 Z" id="tabby" fill="#000000"></path>
                <g id="App-Icon">
                    <g id="Group-2">
                        <rect id="Rectangle" fill="#0050FF" x="0" y="0" width="24" height="24" rx="7.96875"></rect>
                        <g id="Group" transform="translate(3.562500, 4.734375)">
                            <path d="M8.4375,1.71875 C9.375,1.71875 10.2083333,1.875 10.9375,2.1875 C12.2487745,1.05942234 13.6029412,0.330255674 15,-7.10542736e-15 C15.0551471,4.79260728e-15 15.8823529,1.65127837 15.625,3.90625 C15.5514706,3.96306809 16.875,5.61434646 16.875,7.03125 C16.875,7.54971595 16.875,8.06818191 16.875,8.58664786 C16.875,11.869761 14.213511,14.53125 10.9303979,14.53125 L8.4375,14.53125 L5.94460214,14.53125 C2.66148903,14.53125 1.29024382e-15,11.869761 8.8817842e-16,8.58664786 C0,8.06818191 0,7.54971595 0,7.03125 C1.17553026e-15,5.61434646 1.32352941,3.96306809 1.25,3.90625 C0.992647059,1.65127837 1.875,4.97379915e-14 1.875,4.97379915e-14 C3.27205882,0.330255674 4.62622549,1.05942234 5.9375,2.1875 C6.66666667,1.875 7.5,1.71875 8.4375,1.71875 Z" id="Combined-Shape" fill="url(#linearGradient-1)"></path>
                            <path d="M5.859375,5.625 L11.015625,5.625 C13.302429,5.625 15.15625,7.47882096 15.15625,9.765625 L15.15625,10.390625 C15.15625,12.677429 13.302429,14.53125 11.015625,14.53125 L5.859375,14.53125 C3.57257096,14.53125 1.71875,12.677429 1.71875,10.390625 L1.71875,9.765625 C1.71875,7.47882096 3.57257096,5.625 5.859375,5.625 Z" id="Rectangle" fill="url(#linearGradient-2)"></path>
                            <polyline id="Path" stroke="#FFFFFF" stroke-width="0.9375" stroke-linecap="round" stroke-linejoin="round" points="6.09375 10.5972222 7.3642418 11.875 10.78125 8.4375"></polyline>
                        </g>
                    </g>
                </g>
            </g>
        </g>
    </g>
</svg>