<?xml version="1.0" encoding="UTF-8"?>
<svg width="81px" height="24px" viewBox="0 0 81 24" version="1.1" xmlns="http://www.w3.org/2000/svg" xmlns:xlink="http://www.w3.org/1999/xlink">
    <!-- Generator: Sketch 52.2 (67145) - http://www.bohemiancoding.com/sketch -->
    <title>Artboard Copy 9</title>
    <desc>Created with Sketch.</desc>
    <defs>
        <radialGradient cx="50%" cy="0%" fx="50%" fy="0%" r="100%" id="radialGradient-1">
            <stop stop-color="#1D64FF" offset="0%"></stop>
            <stop stop-color="#004AEB" offset="100%"></stop>
        </radialGradient>
        <linearGradient x1="50%" y1="3.1859646%" x2="50%" y2="100%" id="linearGradient-2">
            <stop stop-color="#2F70FF" offset="0%"></stop>
            <stop stop-color="#0043D7" offset="100%"></stop>
        </linearGradient>
        <linearGradient x1="50%" y1="0%" x2="50%" y2="125.235719%" id="linearGradient-3">
            <stop stop-color="#FBADFF" offset="0%"></stop>
            <stop stop-color="#9FBEFF" offset="100%"></stop>
        </linearGradient>
        <radialGradient cx="50%" cy="-21.1751512%" fx="50%" fy="-21.1751512%" r="138.721513%" gradientTransform="translate(0.500000,-0.211752),scale(1.000000,0.606557),rotate(90.000000),translate(-0.500000,0.211752)" id="radialGradient-4">
            <stop stop-color="#FFFFFF" stop-opacity="0.6" offset="0%"></stop>
            <stop stop-color="#FFFFFF" stop-opacity="0" offset="100%"></stop>
        </radialGradient>
        <path d="M7.4,1 C8.33333333,1 9.06666667,1.13333333 9.6,1.4 C10.2666667,0.466666667 11.3333333,0 12.8,0 C13.4,0.8 13.8,2 13.6,2.8 C14.8,4.2 14.8,6.2 14.8,6.2 C14.8,6.48193053 14.7984792,6.76690258 14.7954377,7.05491614 L14.7954321,7.05491608 C14.7653321,9.90521385 12.4461844,12.2 9.59572766,12.2 L7.4,12.2 C7.4,5.53333333 7.4,1.8 7.4,1 Z" id="path-5"></path>
        <path d="M0,1 C0.933333333,1 1.66666667,1.13333333 2.2,1.4 C2.86666667,0.466666667 3.93333333,0 5.4,0 C6,0.8 6.4,2 6.2,2.8 C7.4,4.2 7.4,6.2 7.4,6.2 C7.4,6.48193053 7.39847924,6.76690258 7.39543773,7.05491614 L7.39543213,7.05491608 C7.36533211,9.90521385 5.04618437,12.2 2.19572766,12.2 L0,12.2 C0,5.53333333 0,1.8 0,1 Z" id="path-6"></path>
        <linearGradient x1="50%" y1="112.924731%" x2="50%" y2="-15.8169545%" id="linearGradient-7">
            <stop stop-color="#FBADFF" offset="0%"></stop>
            <stop stop-color="#4D85FF" offset="100%"></stop>
        </linearGradient>
        <path d="M5.5,4.4 L9.3,4.4 C11.4539105,4.4 13.2,6.14608948 13.2,8.3 L13.2,8.3 C13.2,10.4539105 11.4539105,12.2 9.3,12.2 L5.5,12.2 C3.34608948,12.2 1.6,10.4539105 1.6,8.3 L1.6,8.3 C1.6,6.14608948 3.34608948,4.4 5.5,4.4 Z" id="path-8"></path>
        <filter x="-8.6%" y="-12.8%" width="117.2%" height="125.6%" filterUnits="objectBoundingBox" id="filter-9">
            <feGaussianBlur stdDeviation="0.5" in="SourceAlpha" result="shadowBlurInner1"></feGaussianBlur>
            <feOffset dx="0" dy="1" in="shadowBlurInner1" result="shadowOffsetInner1"></feOffset>
            <feComposite in="shadowOffsetInner1" in2="SourceAlpha" operator="arithmetic" k2="-1" k3="1" result="shadowInnerInner1"></feComposite>
            <feColorMatrix values="0 0 0 0 0.0901960784   0 0 0 0 0.37254902   0 0 0 0 0.984313725  0 0 0 0.24 0" type="matrix" in="shadowInnerInner1"></feColorMatrix>
        </filter>
    </defs>
    <g id="Artboard-Copy-9" stroke="none" stroke-width="1" fill="none" fill-rule="evenodd">
        <g id="Artboard">
            <g id="Group-2-Copy-4">
                <rect id="Rectangle" stroke="url(#linearGradient-2)" stroke-width="0.5" fill="url(#radialGradient-1)" x="0.25" y="0.25" width="23.5" height="23.5" rx="11.75"></rect>
                <g id="Group" transform="translate(4.600000, 6.200000)">
                    <g id="Combined-Shape">
                        <use fill="url(#linearGradient-3)" xlink:href="#path-5"></use>
                        <use fill="url(#radialGradient-4)" xlink:href="#path-5"></use>
                    </g>
                    <g id="Combined-Shape" transform="translate(3.700000, 6.100000) scale(-1, 1) translate(-3.700000, -6.100000) ">
                        <use fill="url(#linearGradient-3)" xlink:href="#path-6"></use>
                        <use fill="url(#radialGradient-4)" xlink:href="#path-6"></use>
                    </g>
                    <g id="Rectangle">
                        <use fill="url(#linearGradient-7)" fill-rule="evenodd" xlink:href="#path-8"></use>
                        <use fill="black" fill-opacity="1" filter="url(#filter-9)" xlink:href="#path-8"></use>
                    </g>
                </g>
            </g>
        </g>
        <path d="M33.5,19 C31.08,19 30,17.56 30,15.66 L30.14,5.8 L33.08,5.8 L33.08,8.54 L35.58,8.54 L35.58,11.16 L33.08,11.16 L33.08,14.92 C33.08,15.9 33.5,16.32 34.42,16.32 L35.62,16.32 L35.62,19 L33.5,19 Z M40.5371429,19.18 C38.1771429,19.18 36.8771429,17.76 36.8771429,15.9 C36.8771429,13.96 38.1971429,12.68 41.0771429,12.68 L43.3171429,12.68 L43.3171429,12.12 C43.3171429,11.4 42.8571429,10.84 41.7171429,10.84 C40.7571429,10.84 40.1971429,11.36 40.1971429,12 L37.3171429,12 C37.3171429,10.04 38.7371429,8.36 41.8171429,8.36 C44.6771429,8.36 46.3971429,9.94 46.3971429,12.12 L46.3971429,19 L43.6371429,19 L43.4171429,18.06 L43.3371429,18.06 C42.7571429,18.72 41.8371429,19.18 40.5371429,19.18 Z M41.3171429,16.78 C42.5771429,16.78 43.3171429,16.04 43.3171429,15.18 L43.3171429,14.74 L41.3371429,14.74 C40.3571429,14.74 39.9171429,15.18 39.9171429,15.74 C39.9171429,16.34 40.3971429,16.78 41.3171429,16.78 Z M53.9942857,19.18 C52.5142857,19.18 51.7142857,18.6 51.2142857,18 L51.1342857,18 L50.8142857,19 L48.0542857,19 L48.0542857,4.2 L51.1342857,4.2 L51.1342857,9.54 L51.2142857,9.54 C51.7142857,8.94 52.5142857,8.36 53.9942857,8.36 C56.6342857,8.36 58.2342857,10.64 58.2342857,13.76 C58.2342857,16.9 56.6342857,19.18 53.9942857,19.18 Z M53.0542857,16.48 C54.5742857,16.48 55.1142857,15.22 55.1142857,13.76 C55.1142857,12.3 54.6142857,11.06 53.0542857,11.06 C51.4942857,11.06 50.9942857,12.3 50.9942857,13.76 C50.9942857,15.22 51.5342857,16.48 53.0542857,16.48 Z M65.5314286,19.18 C64.0514286,19.18 63.2514286,18.6 62.7514286,18 L62.6714286,18 L62.3514286,19 L59.5914286,19 L59.5914286,4.2 L62.6714286,4.2 L62.6714286,9.54 L62.7514286,9.54 C63.2514286,8.94 64.0514286,8.36 65.5314286,8.36 C68.1714286,8.36 69.7714286,10.64 69.7714286,13.76 C69.7714286,16.9 68.1714286,19.18 65.5314286,19.18 Z M64.5914286,16.48 C66.1114286,16.48 66.6514286,15.22 66.6514286,13.76 C66.6514286,12.3 66.1514286,11.06 64.5914286,11.06 C63.0314286,11.06 62.5314286,12.3 62.5314286,13.76 C62.5314286,15.22 63.0714286,16.48 64.5914286,16.48 Z M70.0285714,8.54 L73.1885714,8.54 L75.3085714,15.96 L75.3885714,15.96 L77.6485714,8.54 L80.9685714,8.54 L80.9685714,8.74 L75.7085714,23.58 L72.3685714,23.58 L72.3685714,23.38 L73.8685714,19 L73.3485714,19 L70.0285714,8.74 L70.0285714,8.54 Z" id="tabby" fill="#121619"></path>
    </g>
</svg>