<?xml version="1.0" encoding="UTF-8"?>
<svg width="180px" height="130px" viewBox="0 0 180 130" version="1.1" xmlns="http://www.w3.org/2000/svg" xmlns:xlink="http://www.w3.org/1999/xlink">
    <!-- Generator: Sketch 52.2 (67145) - http://www.bohemiancoding.com/sketch -->
    <title>Artboard Copy 5</title>
    <desc>Created with Sketch.</desc>
    <defs>
        <linearGradient x1="50%" y1="0%" x2="50%" y2="13.7008143%" id="linearGradient-1">
            <stop stop-color="#F7F8FC" offset="0%"></stop>
            <stop stop-color="#D1D3E0" offset="100%"></stop>
        </linearGradient>
        <linearGradient x1="0%" y1="1.74815419%" x2="75.8384146%" y2="90.905091%" id="linearGradient-2">
            <stop stop-color="#000000" stop-opacity="0.02" offset="0%"></stop>
            <stop stop-color="#000000" stop-opacity="0" offset="100%"></stop>
        </linearGradient>
        <rect id="path-3" x="6" y="11" width="111" height="79" rx="8"></rect>
        <filter x="-16.2%" y="-22.8%" width="132.4%" height="145.6%" filterUnits="objectBoundingBox" id="filter-4">
            <feOffset dx="0" dy="0" in="SourceAlpha" result="shadowOffsetOuter1"></feOffset>
            <feGaussianBlur stdDeviation="6" in="shadowOffsetOuter1" result="shadowBlurOuter1"></feGaussianBlur>
            <feColorMatrix values="0 0 0 0 0   0 0 0 0 0   0 0 0 0 0  0 0 0 0.2 0" type="matrix" in="shadowBlurOuter1"></feColorMatrix>
        </filter>
        <linearGradient x1="50%" y1="0%" x2="50%" y2="96.1879221%" id="linearGradient-5">
            <stop stop-color="#FCFEFF" offset="0%"></stop>
            <stop stop-color="#F0F3FA" offset="100%"></stop>
        </linearGradient>
        <rect id="path-6" x="0" y="0" width="123" height="90" rx="8"></rect>
        <filter x="-6.5%" y="-4.4%" width="113.0%" height="117.8%" filterUnits="objectBoundingBox" id="filter-7">
            <feOffset dx="0" dy="4" in="SourceAlpha" result="shadowOffsetOuter1"></feOffset>
            <feGaussianBlur stdDeviation="2" in="shadowOffsetOuter1" result="shadowBlurOuter1"></feGaussianBlur>
            <feColorMatrix values="0 0 0 0 0   0 0 0 0 0   0 0 0 0 0  0 0 0 0.04 0" type="matrix" in="shadowBlurOuter1"></feColorMatrix>
        </filter>
        <filter x="-3.5%" y="-0.3%" width="106.9%" height="109.4%" filterUnits="objectBoundingBox" id="filter-8">
            <feOffset dx="0" dy="0.5" in="SourceAlpha" result="shadowOffsetInner1"></feOffset>
            <feComposite in="shadowOffsetInner1" in2="SourceAlpha" operator="arithmetic" k2="-1" k3="1" result="shadowInnerInner1"></feComposite>
            <feColorMatrix values="0 0 0 0 0.960784314   0 0 0 0 0.964705882   0 0 0 0 0.968627451  0 0 0 1 0" type="matrix" in="shadowInnerInner1"></feColorMatrix>
        </filter>
        <linearGradient x1="50%" y1="0%" x2="50%" y2="39.3851902%" id="linearGradient-9">
            <stop stop-color="#CFD2D5" stop-opacity="0.2" offset="0%"></stop>
            <stop stop-color="#CFD2D5" stop-opacity="0" offset="100%"></stop>
        </linearGradient>
        <rect id="path-10" x="5" y="14" width="26" height="8" rx="2"></rect>
        <filter x="-26.9%" y="-62.5%" width="153.8%" height="275.0%" filterUnits="objectBoundingBox" id="filter-11">
            <feOffset dx="0" dy="2" in="SourceAlpha" result="shadowOffsetOuter1"></feOffset>
            <feGaussianBlur stdDeviation="2" in="shadowOffsetOuter1" result="shadowBlurOuter1"></feGaussianBlur>
            <feColorMatrix values="0 0 0 0 0   0 0 0 0 0   0 0 0 0 0  0 0 0 0.08 0" type="matrix" in="shadowBlurOuter1" result="shadowMatrixOuter1"></feColorMatrix>
            <feOffset dx="0" dy="1" in="SourceAlpha" result="shadowOffsetOuter2"></feOffset>
            <feGaussianBlur stdDeviation="0.5" in="shadowOffsetOuter2" result="shadowBlurOuter2"></feGaussianBlur>
            <feColorMatrix values="0 0 0 0 0   0 0 0 0 0   0 0 0 0 0  0 0 0 0.04 0" type="matrix" in="shadowBlurOuter2" result="shadowMatrixOuter2"></feColorMatrix>
            <feMerge>
                <feMergeNode in="shadowMatrixOuter1"></feMergeNode>
                <feMergeNode in="shadowMatrixOuter2"></feMergeNode>
            </feMerge>
        </filter>
        <linearGradient x1="50%" y1="0%" x2="50%" y2="99.0335983%" id="linearGradient-12">
            <stop stop-color="#2EEBC0" offset="0%"></stop>
            <stop stop-color="#10CCA1" offset="9.03856575%"></stop>
            <stop stop-color="#0BA884" offset="100%"></stop>
        </linearGradient>
        <path d="M5.85980807,11.1111111 L14.3333333,11.1111111 C16.0515526,11.1111111 17.4444444,9.71821922 17.4444444,8 C17.4444444,6.59246662 16.5097328,5.40324684 15.2271694,5.01920072 L12.4200836,7.77703945 C12.1136665,8.0780808 11.6212241,8.0737229 11.3201828,7.76730581 C11.0191414,7.46088872 11.0234993,6.96844635 11.3299164,6.667405 L13.1401917,4.88888889 L4.66666667,4.88888889 C2.94844744,4.88888889 1.55555556,6.28178078 1.55555556,8 C1.55555556,9.40753333 2.49026717,10.5967531 3.77283042,10.9807992 L6.57991622,8.22296055 C6.88633331,7.9219192 7.37877568,7.9262771 7.67981703,8.23269419 C7.98085839,8.53911128 7.97650049,9.03155365 7.6700834,9.332595 L5.85980807,11.1111111 Z M3.48716275,12.5163226 C1.48091449,11.9938216 -1.51062638e-15,10.1698539 -1.77635684e-15,8 C-1.20381017e-15,5.42267117 2.08933783,3.33333333 4.66666667,3.33333333 L13.1401917,3.33333333 L11.3299164,1.55481722 C11.0234993,1.25377587 11.0191414,0.761333503 11.3201828,0.454916411 C11.6212241,0.148499319 12.1136665,0.144141422 12.4200836,0.445182775 L15.512837,3.48367734 C17.5190854,4.00617819 19,5.83014603 19,8 C19,10.5773288 16.9106622,12.6666667 14.3333333,12.6666667 L5.85980807,12.6666667 L7.6700834,14.4451828 C7.97650049,14.7462241 7.98085839,15.2386665 7.67981703,15.5450836 C7.37877568,15.8515007 6.88633331,15.8558586 6.57991622,15.5548172 L3.48716275,12.5163226 Z" id="path-13"></path>
        <filter x="-18.4%" y="-16.1%" width="136.8%" height="145.0%" filterUnits="objectBoundingBox" id="filter-14">
            <feOffset dx="0" dy="1" in="SourceAlpha" result="shadowOffsetOuter1"></feOffset>
            <feGaussianBlur stdDeviation="1" in="shadowOffsetOuter1" result="shadowBlurOuter1"></feGaussianBlur>
            <feColorMatrix values="0 0 0 0 0   0 0 0 0 0   0 0 0 0 0  0 0 0 0.12 0" type="matrix" in="shadowBlurOuter1"></feColorMatrix>
        </filter>
    </defs>
    <g id="Artboard-Copy-5" stroke="none" stroke-width="1" fill="none" fill-rule="evenodd">
        <g id="Group-16-Copy">
            <rect id="Rectangle" fill="#D8D8D8" opacity="0" x="0" y="0" width="180" height="130"></rect>
            <g id="Group-13" transform="translate(28.000000, 20.000000)">
                <g id="window">
                    <g id="Rectangle">
                        <use fill="black" fill-opacity="1" filter="url(#filter-4)" xlink:href="#path-3"></use>
                        <use fill="url(#linearGradient-1)" fill-rule="evenodd" xlink:href="#path-3"></use>
                        <use fill="url(#linearGradient-2)" fill-rule="evenodd" xlink:href="#path-3"></use>
                    </g>
                    <g id="Rectangle">
                        <use fill="black" fill-opacity="1" filter="url(#filter-7)" xlink:href="#path-6"></use>
                        <use fill="url(#linearGradient-5)" fill-rule="evenodd" xlink:href="#path-6"></use>
                        <use fill="black" fill-opacity="1" filter="url(#filter-8)" xlink:href="#path-6"></use>
                    </g>
                    <rect id="Rectangle" stroke="url(#linearGradient-9)" fill="#FFFFFF" x="36.5" y="14.5" width="81" height="68" rx="4"></rect>
                    <circle id="Oval" fill="#E3E7E8" cx="8" cy="6" r="2"></circle>
                    <circle id="Oval" fill="#E3E7E8" cx="14" cy="6" r="2"></circle>
                    <circle id="Oval" fill="#E3E7E8" cx="20" cy="6" r="2"></circle>
                    <g id="Rectangle">
                        <use fill="black" fill-opacity="1" filter="url(#filter-11)" xlink:href="#path-10"></use>
                        <use fill="#FFFFFF" fill-rule="evenodd" xlink:href="#path-10"></use>
                    </g>
                    <rect id="Rectangle" fill="#5E6163" opacity="0.16037" x="5" y="26" width="26" height="8" rx="2"></rect>
                    <rect id="Rectangle" fill="#FFFFFF" opacity="0.2" x="7" y="39" width="26" height="8" rx="2"></rect>
                </g>
            </g>
        </g>
        <g id="Group-2" transform="translate(13.000000, 61.000000)">
            <path d="M10,-4.8316906e-13 L34,-4.8316906e-13 C39.5228475,-4.84183591e-13 44,4.4771525 44,10 L44,21 C44,26.5228475 39.5228475,31 34,31 L34,36.7299168 C34,37.8344863 33.1045695,38.7299168 32,38.7299168 C31.532127,38.7299168 31.0790612,38.5658843 30.7196312,38.2663593 L22,31 L10,31 C4.4771525,31 2.29213996e-14,26.5228475 1.24344979e-14,21 L-3.55271368e-14,10 C-4.60140385e-14,4.4771525 4.4771525,-4.88331193e-13 10,-4.99156272e-13 Z" id="Rectangle" fill="url(#linearGradient-12)"></path>
            <g id="Group" transform="translate(13.000000, 7.000000)" fill-rule="nonzero">
                <g id="Combined-Shape">
                    <use fill="black" fill-opacity="1" filter="url(#filter-14)" xlink:href="#path-13"></use>
                    <use fill="#FFFFFF" xlink:href="#path-13"></use>
                </g>
            </g>
        </g>
    </g>
</svg>