<?xml version="1.0" encoding="UTF-8"?>
<svg width="114px" height="24px" viewBox="0 0 114 24" version="1.1" xmlns="http://www.w3.org/2000/svg" xmlns:xlink="http://www.w3.org/1999/xlink">
    <!-- Generator: Sketch 52.2 (67145) - http://www.bohemiancoding.com/sketch -->
    <title>Group 12</title>
    <desc>Created with Sketch.</desc>
    <defs>
        <path d="M7.33333333,1.13779356e-13 L7.33333333,0.843606131 C7.33333333,1.50713997 7.82123987,2.06970093 8.47810486,2.16353879 L10.2828427,2.42135848 C11.2681402,2.56211527 12,3.40595672 12,4.40125747 L12,5.33333333 C12,6.069713 11.4030463,6.66666667 10.6666667,6.66666667 L1.33333333,6.66666667 C0.596953667,6.66666667 -1.31864105e-16,6.069713 -2.22044605e-16,5.33333333 L1.45217172e-13,4.40125747 C2.08743617e-13,3.40595672 0.731859811,2.56211527 1.71715729,2.42135848 L3.52189514,2.16353879 C4.17876013,2.06970093 4.66666667,1.50713997 4.66666667,0.843606131 L4.66666667,1.13779356e-13 L7.33333333,1.13779356e-13 Z" id="path-1"></path>
        <path d="M6,-6.66666667 L6,-6.66666667 C7.84094917,-6.66666667 9.33333333,-5.1742825 9.33333333,-3.33333333 L9.33333333,-2 C9.33333333,-0.527240667 8.139426,0.666666667 6.66666667,0.666666667 L5.33333333,0.666666667 C3.860574,0.666666667 2.66666667,-0.527240667 2.66666667,-2 L2.66666667,-3.33333333 C2.66666667,-5.1742825 4.15905083,-6.66666667 6,-6.66666667 Z" id="path-3"></path>
        <filter x="-7.5%" y="-6.8%" width="115.0%" height="127.3%" filterUnits="objectBoundingBox" id="filter-4">
            <feOffset dx="0" dy="1" in="SourceAlpha" result="shadowOffsetOuter1"></feOffset>
            <feColorMatrix values="0 0 0 0 0   0 0 0 0 0   0 0 0 0 0  0 0 0 0.12 0" type="matrix" in="shadowOffsetOuter1"></feColorMatrix>
        </filter>
    </defs>
    <g id="ðŸŒ-Website" stroke="none" stroke-width="1" fill="none" fill-rule="evenodd">
        <g id="Artboard" transform="translate(-726.000000, -1831.000000)">
            <g id="Group-13" transform="translate(440.000000, 1810.000000)">
                <g id="Group-12" transform="translate(286.000000, 21.000000)">
                    <g id="Group-10">
                        <g id="Group-11">
                            <rect id="Rectangle" fill="#FFC423" opacity="0.2" x="0" y="0" width="24" height="24" rx="8"></rect>
                            <g id="Icon/Menu/Focus" transform="translate(5.000000, 4.000000)">
                                <rect id="Bounds" x="0" y="0" width="16" height="16"></rect>
                                <path d="M2.66666667,14 L2.66666667,4" id="Path" stroke="#FFC423" stroke-width="1.33333333" stroke-linecap="round"></path>
                                <path d="M6.66666667,7.33333333 L6.66666667,8.66666667 C6.66666667,9.0348565 6.9651435,9.33333333 7.33333333,9.33333333 L12.6666667,9.33333333 C13.0348565,9.33333333 13.3333333,9.0348565 13.3333333,8.66666667 C13.3333333,8.52241986 13.2865481,8.38206411 13.2,8.26666667 L12,6.66666667 L13.2,5.06666667 C13.4209139,4.7721148 13.3612185,4.35424723 13.0666667,4.13333333 C12.9512692,4.04678525 12.8109135,4 12.6666667,4 L8.66666667,4" id="Path-3" stroke="#FFC423" stroke-width="1.33333333" fill="#FFC423" fill-rule="evenodd"></path>
                                <path d="M6,8 L8,8 C8.73637967,8 9.33333333,7.40304633 9.33333333,6.66666667 L9.33333333,3.33333333" id="Path-4" stroke="#000000" stroke-width="1.33333333" opacity="0.12"></path>
                                <path d="M3.33333333,2 L8,2 C8.36818983,2 8.66666667,2.29847683 8.66666667,2.66666667 L8.66666667,6.66666667 C8.66666667,7.0348565 8.36818983,7.33333333 8,7.33333333 L3.33333333,7.33333333 C2.9651435,7.33333333 2.66666667,7.0348565 2.66666667,6.66666667 L2.66666667,2.66666667 C2.66666667,2.29847683 2.9651435,2 3.33333333,2 Z" id="Path-2" stroke="#FFC423" stroke-width="1.33333333" fill="#FFC423" fill-rule="evenodd"></path>
                            </g>
                            <rect id="Rectangle" fill="#0050FF" opacity="0.12" x="30" y="0" width="24" height="24" rx="8"></rect>
                            <g id="Icon/Menu/Inbox" transform="translate(34.000000, 4.000000)">
                                <g>
                                    <rect id="Bounds" x="0" y="0" width="16" height="16"></rect>
                                    <path d="M2.66666667,10 L2.66666667,12 C2.66666667,13.1045695 3.56209717,14 4.66666667,14 L11.3333333,14 C12.4379028,14 13.3333333,13.1045695 13.3333333,12 L13.3333333,10 C13.3333333,9.63181017 13.0348565,9.33333333 12.6666667,9.33333333 L10.6666667,9.33333333 C10.2984768,9.33333333 10,9.63181017 10,10 L10,10 C10,10.3681898 9.70152317,10.6666667 9.33333333,10.6666667 L6.66666667,10.6666667 C6.29847683,10.6666667 6,10.3681898 6,10 L6,10 C6,9.63181017 5.70152317,9.33333333 5.33333333,9.33333333 L3.33333333,9.33333333 C2.9651435,9.33333333 2.66666667,9.63181017 2.66666667,10 Z" id="Path-2" fill="#0050FF"></path>
                                    <path d="M3.33333333,10 L3.33333333,4.66666667 C3.33333333,3.56209717 4.22876383,2.66666667 5.33333333,2.66666667 L10.6666667,2.66666667 C11.7712362,2.66666667 12.6666667,3.56209717 12.6666667,4.66666667 L12.6666667,10" id="Path" stroke="#0050FF" stroke-width="1.33333333"></path>
                                    <rect id="Rectangle" fill-opacity="0.2" fill="#000000" x="2.66666667" y="8.66666667" width="1.33333333" height="1"></rect>
                                    <rect id="Rectangle" fill-opacity="0.2" fill="#000000" x="12" y="8.66666667" width="1.33333333" height="1"></rect>
                                </g>
                            </g>
                            <rect id="Rectangle" fill="#10CCA1" opacity="0.12" x="60" y="0" width="24" height="24" rx="8"></rect>
                            <g id="Icon/Menu/Assigned" transform="translate(64.000000, 4.000000)">
                                <g>
                                    <rect id="Bounds" x="0" y="0" width="16" height="16"></rect>
                                    <g id="Group" transform="translate(2.000000, 8.000000)">
                                        <mask id="mask-2" fill="white">
                                            <use xlink:href="#path-1"></use>
                                        </mask>
                                        <use id="Rectangle" fill="#10CCA1" xlink:href="#path-1"></use>
                                        <g id="Rectangle" mask="url(#mask-2)">
                                            <use fill="black" fill-opacity="1" filter="url(#filter-4)" xlink:href="#path-3"></use>
                                            <use fill="#D8D8D8" fill-rule="evenodd" xlink:href="#path-3"></use>
                                        </g>
                                    </g>
                                    <path d="M8,1.33329342 L8.00000904,1.33328931 C9.84095821,1.33328931 11.3333424,2.82567347 11.3333424,4.66662264 C11.3333424,4.66662401 11.3333424,4.66662538 11.3333424,4.66662675 L11.3333522,6.64031603 C11.3333505,8.02714386 10.2703672,9.18248552 8.88833911,9.29776658 C8.60408166,9.32147775 8.30796862,9.33333333 8,9.33333333 C7.69203377,9.33333333 7.39592295,9.32147793 7.11166752,9.29776713 L7.11166745,9.29776805 C5.7296453,9.18248846 4.66666667,8.02715123 4.66666667,6.64032946 L4.66666667,4.66662675 C4.66666667,2.82567758 6.15905083,1.33329342 8,1.33329342 Z" id="Rectangle" fill="#10CCA1"></path>
                                </g>
                            </g>
                            <rect id="Rectangle" fill="#C8BB80" opacity="0.12" x="90" y="0" width="24" height="24" rx="8"></rect>
                            <g id="Icon/Menu/Closed" transform="translate(94.000000, 4.000000)">
                                <g>
                                    <rect id="Bounds" x="0" y="0" width="16" height="16"></rect>
                                    <path d="M3,2.66666667 L13,2.66666667 C13.5522847,2.66666667 14,3.11438192 14,3.66666667 L14,4.33333333 C14,4.88561808 13.5522847,5.33333333 13,5.33333333 L3,5.33333333 C2.44771525,5.33333333 2,4.88561808 2,4.33333333 L2,3.66666667 C2,3.11438192 2.44771525,2.66666667 3,2.66666667 Z" id="Rectangle" fill="#C8BB80"></path>
                                    <path d="M2.66666667,5.33333333 L6,5.33333333 L6,6 C6,6.36818983 6.29847683,6.66666667 6.66666667,6.66666667 L9.33333333,6.66666667 C9.70152317,6.66666667 10,6.36818983 10,6 L10,5.33333333 L13.3333333,5.33333333 L13.3333333,11.3333333 C13.3333333,12.4379028 12.4379028,13.3333333 11.3333333,13.3333333 L4.66666667,13.3333333 C3.56209717,13.3333333 2.66666667,12.4379028 2.66666667,11.3333333 L2.66666667,5.33333333 Z" id="Rectangle" fill="#C8BB80"></path>
                                    <rect id="Rectangle" fill-opacity="0.12" fill="#000000" x="2.66666667" y="5.33333333" width="10.6666667" height="1"></rect>
                                    <path d="M6,5.33333333 L10,5.33333333 L10,6 C10,6.36818983 9.70152317,6.66666667 9.33333333,6.66666667 L6.66666667,6.66666667 C6.29847683,6.66666667 6,6.36818983 6,6 L6,5.33333333 Z" id="Rectangle" fill="#FFFFFF"></path>
                                </g>
                            </g>
                        </g>
                    </g>
                    <g id="Group-10" transform="translate(30.000000, 0.000000)"></g>
                    <g id="Group-10" transform="translate(60.000000, 0.000000)"></g>
                    <g id="Group-10" transform="translate(90.000000, 0.000000)"></g>
                </g>
            </g>
        </g>
    </g>
</svg>